<svg width="32" height="32" fill="none" xmlns="http://www.w3.org/2000/svg"><path d="M23.875 9H8.125c-.298 0-.585.123-.795.342-.211.218-.33.515-.33.825v11.666c0 .31.119.607.33.825.21.22.497.342.795.342h15.75c.298 0 .584-.123.796-.342.21-.219.329-.515.329-.825V10.167c0-.31-.119-.607-.33-.825A1.105 1.105 0 0 0 23.875 9Zm-.866 12.833H9.059l3.937-4.223-.81-.81-4.061 4.357V11.053l6.992 7.216c.21.218.496.34.793.34.297 0 .582-.123.793-.34l7.172-7.396V21.08l-4.14-4.293-.793.822 4.067 4.223ZM8.862 10.167h14.102L15.91 17.44l-7.048-7.274Z" fill="#000"/></svg>