<svg width="296" height="42" fill="none" xmlns="http://www.w3.org/2000/svg"><path d="M129.41 21.157a.3.3 0 0 0-.063-.168l.156-.002-.093.17Zm-12.448 17.516c.798-6.32 5.11-14.251 12.225-17.213.039-.015.063-.037.091-.058-1.748 3.317-2.668 6.855-4.64 10.13-1.718 2.854-4.622 5.114-7.676 7.14ZM93.538 36.42c-.615 1.035-4.126 5.534-3.816 2.888.253-2.183.974-4.32 1.781-6.413 1.668-4.32 4.787-7.94 8.928-10.992-1.057 1.261-1.517 2.913-2.006 4.3-1.221 3.474-2.943 6.946-4.887 10.217ZM84.281 7c-2.559-2.971 2.058-1.368 4.202-.83 3.549.887 6.925 2.39 10.001 4.007 4.71 2.478 9.259 5.153 12.226 8.93C100.471 17.482 90.347 14.047 84.281 7Zm30.863.882c-1.162-.778-2.192-1.655-3.211-2.544.229.202-3.154-3.974-2.99-3.929 6.671 1.836 12.582 4.64 17.76 8.39 3.807 2.755 6.209 6.516 9.841 9.373-5.171-1.809-9.492-4.37-14.126-6.944-2.493-1.385-4.95-2.787-7.274-4.346Zm-55.325 29.94c-2.016 1.902-2.525 1.45-2.517-.876.009-2.458 1.443-4.802 2.997-6.87 2.598-3.45 6.717-6.11 10.41-8.817.037 0 .075 0 .113.002-3.39 5.732-5.732 11.59-11.003 16.56Zm-20.141-11.77c-2.223 3.116-4.172 6.452-8.65 7.723.946-5.777 6.383-10.252 13.143-12.338-1.981 1.13-3.404 3.085-4.493 4.615ZM3.01 20.188c7.464-2.038 14.586-1.828 22.08-.39-1.406.013-2.81.026-4.216.036-.518.006-.72.377-.615.674-5.928.705-12.127 2.283-17.249-.32Zm22.865-13.96c9.825.092 17.076 6.754 23.462 12.216-4.286-1.585-9.021-2.376-13.073-4.503-3.959-2.076-6.985-5.11-10.39-7.713Zm25.238-2.026c11.752 1.816 21.3 6.667 27.26 14.738C67.85 16.9 55.94 12.17 51.115 4.202Zm93.815 15.863c-2.102-.058-4.206-.092-6.308-.14.083-.138.073-.312-.102-.468-4.555-4.076-8.117-8.61-13.435-12.145-5.054-3.36-11.172-5.556-17.374-7.29-.427-.12-.96.266-.78.61 2.51 4.794 7.009 8.036 12.25 11.092 4.593 2.678 9.903 6.651 15.66 8.119-7.461-.153-14.926-.27-22.392-.337-1.663-3.662-6.18-6.244-10.055-8.466-6.075-3.482-12.702-6.042-20.177-7.03-.463-.06-.868.21-.756.587 1.385 4.616 6.88 8.003 11.637 10.567 2.805 1.51 6.741 3.324 10.729 4.286-7.988-.043-15.977-.052-23.968-.033C76.55 9.88 61.475 4.502 50.117 2.962c-.456-.062-1.059.24-.846.658 3.853 7.576 14.939 13.767 25.443 15.818-7.612.03-15.222.072-22.833.132a.457.457 0 0 0-.168-.143c-.305-.146-.625-.269-.937-.403-6.859-6.469-15.017-14.65-26.843-13.989-.672.037-1.103.667-.57 1.072 3.59 2.722 6.803 5.907 10.837 8.247 4.337 2.516 9.457 4.072 14.646 5.242-6.63.053-13.259.11-19.887.169C20.175 16.128 9.505 16.207.49 19.29c-.567.194-.655.914-.202 1.217 3.314 2.209 7.441 2.46 11.654 2.383 5.06-.091 11.638-.3 16.435-1.628.191-.053.292-.185.294-.318 4.427.04 8.856.075 13.284.114-7.023 2.02-11.93 7.494-12.265 13.396-.018.316.404.537.78.46 3.771-.767 6.15-2.758 8.136-5.277 1.17-1.487 2.136-3.068 3.304-4.558 1.385-1.766 3.068-2.685 5.22-3.786a.45.45 0 0 0 .206-.19c7.187.06 14.373.111 21.562.15-7.816 4.644-15.127 11.204-12.925 19.338.089.332.652.61 1.074.475 3.916-1.245 6.235-4.598 8.259-7.305 2.978-3.985 4.888-8.168 6.923-12.476.004-.007.001-.013.004-.022 8.996.041 17.993.06 26.988.028-7.554 4.183-11.938 13.208-11.304 20.112.027.293.328.631.761.594 3.728-.328 6.072-4.88 7.259-7.126 2.25-4.257 3.466-9.9 6.941-13.605 8.373-.04 16.745-.118 25.115-.259-8.368 2.343-13.134 13.039-12.915 19.205.023.623.919.86 1.493.482 8.106-5.364 11.454-11.84 14.162-19.735 4.732-.086 9.465-.185 14.195-.312.482-.012.482-.57 0-.582ZM166.496 20.987l.156.002a.306.306 0 0 0-.062.168l-.094-.17Zm4.866 10.545c-1.972-3.275-2.893-6.813-4.64-10.13.029.021.052.043.091.058 7.116 2.962 11.426 10.892 12.226 17.213-3.055-2.027-5.959-4.288-7.677-7.142Zm26.211-5.328c-.486-1.388-.947-3.04-2.004-4.301 4.142 3.052 7.261 6.672 8.928 10.992.807 2.093 1.528 4.23 1.784 6.413.306 2.646-3.204-1.853-3.818-2.888-1.943-3.271-3.668-6.743-4.89-10.216Zm-12.283-7.096c2.969-3.778 7.517-6.453 12.227-8.93 3.076-1.618 6.451-3.12 10-4.008 2.144-.538 6.76-2.141 4.203.83-6.066 7.046-16.189 10.48-26.43 12.108Zm-11.708-6.88c-4.634 2.573-8.954 5.135-14.126 6.944 3.632-2.857 6.035-6.618 9.841-9.374 5.178-3.748 11.09-6.553 17.761-8.389.163-.045-3.219 4.13-2.992 3.929-1.017.889-2.046 1.766-3.21 2.544-2.325 1.559-4.779 2.96-7.274 4.346Zm51.598 9.033c.036-.002.075-.002.112-.002 3.692 2.707 7.811 5.368 10.408 8.817 1.557 2.068 2.989 4.412 2.999 6.87.007 2.325-.502 2.778-2.517.876-5.271-4.97-7.613-10.829-11.002-16.561Zm26.648.176c6.761 2.086 12.198 6.561 13.143 12.338-4.476-1.271-6.426-4.607-8.649-7.723-1.091-1.53-2.51-3.485-4.494-4.615Zm23.913-.929c.103-.297-.098-.668-.615-.674-1.405-.01-2.811-.023-4.217-.035 7.494-1.439 14.617-1.649 22.08.389-5.122 2.603-11.321 1.025-17.248.32Zm-16.006-6.567c-4.05 2.127-8.786 2.918-13.073 4.502 6.386-5.46 13.637-12.123 23.463-12.215-3.405 2.603-6.432 5.637-10.39 7.713Zm-42.109 4.999c5.961-8.071 15.508-12.922 27.26-14.738-4.827 7.967-16.734 12.698-27.26 14.738Zm-66.554 1.707c4.73.127 9.462.226 14.193.312 2.708 7.894 6.057 14.372 14.164 19.735.572.379 1.47.141 1.491-.482.221-6.166-4.546-16.862-12.913-19.205 8.371.14 16.742.218 25.115.26 3.475 3.704 4.689 9.347 6.939 13.604 1.189 2.246 3.533 6.798 7.259 7.126.435.037.736-.301.762-.594.634-6.904-3.75-15.929-11.303-20.112 8.994.031 17.992.013 26.988-.028.002.009 0 .015.002.022 2.037 4.308 3.945 8.491 6.923 12.476 2.025 2.707 4.343 6.06 8.261 7.305.422.135.984-.143 1.073-.475 2.202-8.134-5.11-14.694-12.924-19.338 7.187-.039 14.375-.09 21.561-.15.037.07.098.137.205.19 2.153 1.1 3.837 2.02 5.222 3.786 1.168 1.49 2.134 3.07 3.305 4.558 1.983 2.519 4.362 4.51 8.135 5.278.374.076.798-.145.779-.461-.335-5.902-5.243-11.376-12.265-13.396 4.429-.039 8.858-.074 13.285-.114.002.133.104.265.294.318 4.795 1.328 11.372 1.537 16.435 1.628 4.211.078 8.339-.174 11.653-2.383.452-.303.366-1.023-.201-1.217-9.016-3.083-19.683-3.162-28.468.475-6.629-.059-13.257-.116-19.888-.17 5.189-1.17 10.307-2.725 14.645-5.241 4.035-2.34 7.248-5.525 10.838-8.247.532-.405.103-1.035-.571-1.072-11.825-.661-19.984 7.52-26.843 13.99-.313.133-.63.256-.936.402a.449.449 0 0 0-.168.143c-7.61-.06-15.221-.102-22.833-.132 10.505-2.051 21.592-8.242 25.443-15.818.213-.418-.391-.72-.846-.658-11.359 1.54-26.433 6.918-29.741 16.455-7.99-.019-15.98-.01-23.969.033 3.989-.962 7.925-2.775 10.729-4.286 4.758-2.564 10.253-5.95 11.638-10.567.114-.377-.293-.647-.755-.587-7.476.988-14.104 3.548-20.178 7.03-3.874 2.222-8.392 4.804-10.055 8.466-7.465.067-14.931.184-22.392.337 5.756-1.468 11.067-5.441 15.661-8.12 5.241-3.055 9.738-6.297 12.25-11.091.18-.344-.354-.73-.781-.61-6.202 1.734-12.318 3.93-17.374 7.29-5.318 3.535-8.881 8.069-13.435 12.145-.175.156-.185.33-.102.469-2.102.047-4.206.082-6.307.139-.484.012-.484.57 0 .582Z" fill="#8E9892" fill-opacity=".7"/></svg>