<svg width="96" height="40" fill="none" xmlns="http://www.w3.org/2000/svg"><path d="M80.11 18.005a48.31 48.31 0 0 1-2.16-3.388c-.898-1.564-2.743-7.003-.22-8.34-.558 2.328 1.873 5.75 2.644 7.772.947 2.48 1.923 5.68 3.386 8.23-1.377-1.203-2.526-2.655-3.65-4.274Zm4.18-2.098c.216 2.031.507 4.059.821 6.081-.865-2.083-1.999-4.13-2.86-6.143-1.379-3.23-2.352-6.61-3.737-9.831.027-.004.048-.015.076-.018 4.156-.547 5.415 7.219 5.7 9.91Zm.37 20.831c-.483 1.03-1.91 1.171-2.5.133-.411-.724.256-1.883.739-2.387.07-.076.133-.12.195-.167.132.066.316.029.383-.11l.007-.018c.37.05.642.602 1.2.879a.72.72 0 0 0 .274.074 3.475 3.475 0 0 1-.298 1.596Zm-9.318-4.298c-.667 1.917-1.509 4.096-2.947 5.555-.474.482-.902.462-1.28.222.467-2.63 1.085-4.798 2.306-7.265.728-1.474 1.633-2.917 2.3-4.44.174-.133.346-.261.518-.387-.117 2.235-.136 4.123-.897 6.315Zm-4.557-.714c.764-1.293 1.867-2.525 3.063-3.632-.675 1.325-1.31 2.673-1.934 3.985-.712 1.496-1.517 3.213-1.82 4.923l-.074-.122c-.973-1.67-.104-3.682.765-5.154Zm-14.892-14.49c-.867-1.109-1.689-2.238-2.42-3.443-.5-.825-.677-1.776-1.255-2.536-.09-.122-.248-.092-.348-.005-.058-1.564.144-3.285.37-4.776.189-1.245.65-2.11 1.25-2.638.974 5.673 2.505 11.332 5.354 16.321-1.073-.859-2.07-1.8-2.95-2.924Zm3.082-10.263c.955 4.21-.903 8.53.315 12.561-1.05-2.464-2.128-4.913-3.017-7.452-.986-2.813-1.007-5.917-2.14-8.652 1.767-.807 4.173.593 4.842 3.543Zm-4.69 24.525c-.026-1.023 1.017-1.666 1.877-1.847 1.071-.229 1.137.849 1.2 1.759a.358.358 0 0 0 .064.18c-.777 1.227-3.095 1.649-3.14-.092Zm-7.09-6.785c-1.816 2.51-2.769 5.523-5.01 7.722-.992.975-1.98 1.186-2.785.918 1.774-5.152 5.736-8.924 10.368-11.314-.942.695-1.765 1.556-2.574 2.674Zm-9.513 4.857c.335-1.633 1.353-2.9 2.485-4.033 1.97-1.97 4.34-2.904 6.834-3.54-1.055.718-2.018 1.589-2.754 2.235-2.575 2.263-4.715 5.08-5.952 8.316-.575-.733-.85-1.823-.613-2.978ZM26.58 5.3c-.5-1.382-.108-2.411 1.174-3.09 1.533 4.394 3.341 8.876 5.892 12.78-3.178-2.504-5.828-5.738-7.066-9.69Zm2.74-3.648c.948.344 1.77.892 2.464 1.637 1.797 1.687 2.06 4.349 2.192 6.668.104 1.829.038 3.627.55 5.306a189.72 189.72 0 0 1-3.702-7.26c-.914-1.898-1.274-4.312-2.552-6.018.315-.123.654-.239 1.047-.333ZM11.406 38.183c-.073.01-.136.001-.205.002 1.453-4.812 2.624-9.635 4.623-14.235-.319 1.132-.468 2.347-.614 3.328-.383 2.57-.82 5.476-.494 8.085-.75 1.343-1.629 2.604-3.31 2.82ZM9.5 32.764c.74-2.57 2.57-4.63 4.357-6.702-1.832 3.73-3.128 7.826-3.48 11.895-1.34-.895-1.186-4.122-.877-5.193Zm-1.545-14.86c-1.293-.455-2.52-1.154-3.677-1.89-.48-.308-4.098-4.416-3.185-5.083 2.333 1.957 5.047 3.487 7.682 4.956 2.108 1.176 4.376 2.508 6.712 3.365-2.523-.345-5.037-.468-7.532-1.347Zm9.128 1.24c-2.393-1.652-5.265-2.77-7.816-4.117-2.453-1.296-4.787-2.82-7.203-4.172 5.922.22 11.839 3.17 15.02 8.289ZM21.87 30.67c-1.535-.066-2.11-1.601-1.348-2.794.876-1.378 2.38-.68 3.454-.058.109 1.175-.812 2.906-2.106 2.852ZM3.675 32.91c-.644.03-.873-.662-.94-1.203-.08-.655.356-1.2.856-1.546.462-.32 1.045-.5 1.598-.361.394.1.57.591.949.747-.251 1.141-1.309 2.306-2.463 2.363Zm14.74-26.158c1.466.359 1.207 2.523.866 3.587-.185.58-.527 1.205-1.027 1.567-1.015.193-2.048-.977-2.557-2.076-.913-1.977.723-3.564 2.718-3.078Zm21.17 1.657c-.53-1.38-.07-2.847 1.343-3.356 1.353-.49 2.252.63 2.27 1.93a3.08 3.08 0 0 1-.523 1.731c-.333.512-.963.67-1.44.993-.038.025-.051.066-.083.098-.696-.05-1.215-.476-1.567-1.396Zm28.048 4.467c.872-.488 1.66.283 1.933 1.087.388 1.14-.24 1.726-.645 2.697-.006.016-.008.03-.013.047-1.998.071-3.581-2.547-1.275-3.831Zm27.68 10.164c-2.725.73-5.48 1.154-8.252 1.345-.173-.077-.337-.16-.504-.243.076-2.738-.81-5.53-1.095-8.235-.22-2.087-.4-4.375-1.367-6.266-1.249-2.445-3.792-5.884-6.85-4.298-3.66 1.9-1.098 8.354.245 10.788 1.606 2.916 3.906 6.657 7.014 8.368-2.754.052-5.522-.104-8.295-.411-3.033-1.035-4.66-3.88-6.296-6.472 1.733-.427 1.817-3.096 1.217-4.507-.794-1.871-2.589-2.662-4.422-1.852-2.078.916-2.674 3.484-1.46 5.341.524.804 1.392 1.419 2.341 1.53a2.654 2.654 0 0 0 1.528-.256c.245 1.61 1.345 2.994 2.385 4.18a9.8 9.8 0 0 0 1.876 1.678c-4.305-.617-8.61-1.53-12.878-2.503-.019-1.943-.481-3.825-.364-5.801.122-2.028.325-4.038.27-6.073-.077-2.79-1.034-6.16-3.868-7.237C50.47-.19 50.48 8.15 51.705 11.94c-.08 2.033 2.253 4.619 3.288 6.005a11.125 11.125 0 0 0 2.81 2.66c-3.875-.897-7.713-1.802-11.482-2.527a17.829 17.829 0 0 1-2.535-2.895c-.948-1.355-1.245-2.802-1.715-4.28 3.23-.14 3.64-8.994-1.76-7.181-2.25.754-2.908 3.369-1.953 5.422.471 1.012 1.75 2.048 2.826 1.927-.013 1.443.838 2.989 1.528 4.118a11.593 11.593 0 0 0 2.19 2.624c-2.78-.5-5.726-.874-8.72-1.038a38.61 38.61 0 0 1-.385-.245c-.62-4.319.526-10.106-2.516-13.635-1.603-1.863-5.187-4.461-7.257-1.668-2.045 2.766-.13 6.252 1.458 8.746 1.744 2.742 4.018 5.155 6.789 6.726-2.553-.06-5.12.052-7.636.378-.951-.546-1.91-1.074-2.848-1.644-1.383-.838-2.57-1.91-3.874-2.853.402-.537.682-1.184.874-1.815.719-2.369.076-5.325-2.68-5.638-1.398-.159-2.973.494-3.73 1.715-.732 1.177-.363 2.726.213 3.876.333.665.84 1.243 1.412 1.653a.577.577 0 0 0 .043.184c.468 1.106 1.741 1.483 2.768.975a2.9 2.9 0 0 0 .7-.49c1.326 2.017 3.637 3.247 5.902 4.213-2.561.41-5.054 1.063-7.401 2.009C15.336 12.527 7.294 9.673.607 9.652c-.334 0-.545.27-.575.588-.65 7.126 8.692 10.977 15.07 10.395-3.358 1.84-6.303 4.429-8.571 7.962a2.525 2.525 0 0 0-1.14-.645c-1.378-.351-2.987.566-3.77 1.681-.905 1.29-.753 3.097.293 4.262.977 1.09 2.608.66 3.605-.132 1.105-.88 1.734-2.244 1.487-3.67a.39.39 0 0 0-.058-.154.213.213 0 0 0 .005-.036.583.583 0 0 0 .185-.12c2.123-2.028 4.184-3.796 6.305-5.295C10 27.855 6.65 32.698 8.55 36.778c2.315 4.976 7.293 1.055 7.577-3.084.011-.155-.12-.22-.243-.208.274-1.374.33-2.82.47-4.188.181-1.743.466-3.438.872-5.139.198-.826.524-1.552.68-2.342 2.586-1.284 5.366-2.206 8.518-2.744-.936.672-1.675 1.544-2.335 2.588-.618.978-1.403 2.407-1.721 3.744a2.701 2.701 0 0 0-.335-.02c-1.107.02-2.018.761-2.602 1.67-1.297 2.019-.215 4.456 2.15 4.784 1.94.27 3.193-1.5 3.399-3.282.108-.938-.25-1.896-.902-2.271a2.274 2.274 0 0 0-.54-.489c.383-.816.616-1.766.907-2.533.688-1.803 1.63-3.356 3.247-4.39.567-.077 1.146-.138 1.738-.191 6.11-.541 12.278.387 18.325 1.622-6.25.445-14.257 6.556-11.177 12.787 1.669 3.377 5.836 1.25 7.514-.721 3.09-3.626 3.914-8.611 8.146-11.107l2.257.498c2.073.456 4.185.94 6.317 1.42-1.411 1.321-2.768 3.055-3.336 4.933a3.021 3.021 0 0 0-1.186-.237c-1.972-.002-3.808 1.71-3.683 3.77.137 2.27 2.248 2.987 4.092 2.18.78-.342 1.54-.968 1.802-1.822a1.711 1.711 0 0 0-.035-1.15c.271-.56.301-1.161-.01-1.841a1.648 1.648 0 0 0-.261-.389c.424-.638.758-1.324 1.125-2.03a17.655 17.655 0 0 1 2.209-3.25c4.458.994 9.011 1.937 13.567 2.471-.03.053-.062.105-.093.158-2.664 1.573-5.232 3.827-6.313 6.78-.89 2.431-.477 6.362 2.45 7.17 2.357.645 4.039-3.02 4.76-4.649 1.37-3.1 1.914-5.978 1.208-9.258a55.78 55.78 0 0 0 7.209.196c-.803 1.053-1.331 2.248-1.688 3.593-.197.74-.355 1.64-.31 2.491-.244.12-.477.268-.685.444-1.447 1.222-2.25 3.614-1.161 5.326 1.255 1.974 4.224 1.783 5.282-.244.635-1.216.543-2.671-.101-3.786-.05-.836-.697-1.584-1.483-1.881-.085-.031-.169-.051-.254-.072.039-.637.048-1.28.137-1.876.21-1.398.71-2.775 1.348-4.036 3.46-.223 6.877-.845 10.209-2.032.673-.24.407-1.29-.297-1.101Z" fill="#8E9892" fill-opacity=".7"/></svg>