<svg width="32" height="32" fill="none" xmlns="http://www.w3.org/2000/svg"><path d="m12.563 6.505-.86.259a4.2 4.2 0 0 0-2.946 3.424c-.356 2.482.44 5.384 2.362 8.711 1.916 3.32 4.026 5.458 6.348 6.394a4.2 4.2 0 0 0 4.458-.846l.65-.617a2.4 2.4 0 0 0 .297-3.147l-1.628-2.256a1.8 1.8 0 0 0-1.985-.668l-2.462.753-.063.012c-.272.04-.898-.547-1.678-1.899-.816-1.413-.984-2.24-.76-2.454l1.252-1.167a2.997 2.997 0 0 0 .69-3.42l-.794-1.765a2.4 2.4 0 0 0-2.88-1.314h-.002ZM14.35 8.31l.793 1.766a1.796 1.796 0 0 1-.413 2.052l-1.255 1.168c-.803.761-.537 2.06.543 3.93 1.015 1.759 1.942 2.627 2.938 2.476l.149-.031 2.505-.764a.6.6 0 0 1 .663.221l1.627 2.256a1.2 1.2 0 0 1-.148 1.575l-.651.617a3 3 0 0 1-3.184.603c-2.038-.82-3.964-2.773-5.758-5.88-1.799-3.114-2.527-5.762-2.214-7.94a3 3 0 0 1 2.104-2.447l.86-.26a1.2 1.2 0 0 1 1.44.658h.002Z" fill="#000"/></svg>