<svg width="27" height="20" viewBox="0 0 27 20" fill="none" xmlns="http://www.w3.org/2000/svg">
<path d="M22.8334 3.33329C22.8334 1.86663 21.6334 0.666626 20.1667 0.666626H16.1667V3.33329H20.1667V6.86663L15.5267 12.6666H10.8334V5.99996H5.50008C2.55341 5.99996 0.166748 8.38663 0.166748 11.3333V15.3333H2.83341C2.83341 17.5466 4.62008 19.3333 6.83341 19.3333C9.04675 19.3333 10.8334 17.5466 10.8334 15.3333H16.8067L22.8334 7.79996V3.33329ZM2.83341 12.6666V11.3333C2.83341 9.86663 4.03341 8.66663 5.50008 8.66663H8.16675V12.6666H2.83341ZM6.83341 16.6666C6.10008 16.6666 5.50008 16.0666 5.50008 15.3333H8.16675C8.16675 16.0666 7.56675 16.6666 6.83341 16.6666Z" fill="#0F805D"/>
<path d="M4.16675 1.99996H10.8334V4.66663H4.16675V1.99996ZM22.8334 11.3333C20.6201 11.3333 18.8334 13.12 18.8334 15.3333C18.8334 17.5466 20.6201 19.3333 22.8334 19.3333C25.0467 19.3333 26.8334 17.5466 26.8334 15.3333C26.8334 13.12 25.0467 11.3333 22.8334 11.3333ZM22.8334 16.6666C22.1001 16.6666 21.5001 16.0666 21.5001 15.3333C21.5001 14.6 22.1001 14 22.8334 14C23.5667 14 24.1667 14.6 24.1667 15.3333C24.1667 16.0666 23.5667 16.6666 22.8334 16.6666Z" fill="#0F805D"/>
</svg>
