<svg width="25" height="24" viewBox="0 0 25 24" fill="none" xmlns="http://www.w3.org/2000/svg">
<path d="M12.5041 24C12.2766 24 12.0584 23.921 11.8976 23.7803C11.7367 23.6397 11.6464 23.4489 11.6464 23.25V21.3105L10.5382 22.281C10.3772 22.4216 10.1588 22.5006 9.93124 22.5004C9.70364 22.5003 9.48542 22.4211 9.3246 22.2803C9.16377 22.1394 9.07351 21.9485 9.07367 21.7495C9.07383 21.5504 9.1644 21.3596 9.32545 21.219L11.6464 19.1895V13.299L5.81405 16.2435L4.96322 19.0185C4.90408 19.2106 4.76007 19.3744 4.56286 19.4737C4.36566 19.573 4.13143 19.5997 3.91169 19.548C3.69195 19.4963 3.5047 19.3704 3.39114 19.1979C3.27758 19.0255 3.24701 18.8206 3.30616 18.6285L3.7127 17.3055L1.79147 18.2745C1.59458 18.3724 1.3614 18.3982 1.14282 18.3463C0.924248 18.2944 0.738016 18.169 0.624769 17.9975C0.511522 17.826 0.480454 17.6223 0.538345 17.4308C0.596236 17.2393 0.738386 17.0757 0.933774 16.9755L2.85501 16.0065L1.33861 15.651C1.2298 15.6254 1.12783 15.5813 1.03852 15.5212C0.9492 15.4612 0.874289 15.3863 0.81806 15.3009C0.761831 15.2155 0.725385 15.1213 0.710803 15.0236C0.696221 14.9259 0.703789 14.8266 0.733074 14.7315C0.762359 14.6364 0.812787 14.5472 0.881481 14.4691C0.950174 14.391 1.03579 14.3255 1.13343 14.2763C1.23107 14.2271 1.33884 14.1953 1.45057 14.1825C1.5623 14.1698 1.6758 14.1764 1.78461 14.202L4.95464 14.9445L10.7887 12L4.95636 9.0555L1.78289 9.798C1.56458 9.84558 1.33363 9.81624 1.13983 9.71631C0.946021 9.61638 0.804879 9.45387 0.746824 9.26379C0.688768 9.07371 0.718449 8.8713 0.829468 8.70018C0.940487 8.52906 1.12395 8.40294 1.34032 8.349L2.85501 7.9935L0.933774 7.0245C0.835443 6.97561 0.749142 6.9102 0.679839 6.83203C0.610536 6.75386 0.5596 6.66447 0.529963 6.56902C0.500327 6.47357 0.492575 6.37393 0.507155 6.27584C0.521734 6.17776 0.558357 6.08316 0.614915 5.9975C0.671472 5.91185 0.746848 5.83682 0.836701 5.77674C0.926554 5.71665 1.02911 5.67271 1.13847 5.64743C1.24782 5.62214 1.36182 5.61603 1.47389 5.62943C1.58596 5.64283 1.69389 5.67548 1.79147 5.7255L3.7127 6.6945L3.30616 5.37C3.27494 5.27427 3.26584 5.17406 3.27937 5.07522C3.29291 4.97638 3.32881 4.88088 3.38498 4.79429C3.44116 4.70771 3.51648 4.63177 3.60656 4.5709C3.69664 4.51004 3.79968 4.46546 3.90967 4.43977C4.01966 4.41409 4.13439 4.4078 4.24718 4.42129C4.35997 4.43478 4.46857 4.46776 4.56663 4.51832C4.66469 4.56889 4.75027 4.63602 4.81836 4.71579C4.88645 4.79557 4.93569 4.88641 4.96322 4.983L5.81234 7.7565L11.6464 10.701V4.8105L9.32545 2.781C9.24571 2.71137 9.18243 2.62868 9.13923 2.53766C9.09603 2.44664 9.07375 2.34908 9.07367 2.25053C9.07359 2.15198 9.09571 2.05439 9.13876 1.96332C9.18182 1.87225 9.24496 1.78948 9.3246 1.71975C9.40423 1.65002 9.49879 1.59468 9.60288 1.55691C9.70696 1.51913 9.81854 1.49965 9.93124 1.49958C10.0439 1.49951 10.1555 1.51885 10.2597 1.5565C10.3638 1.59415 10.4585 1.64937 10.5382 1.719L11.6464 2.6895V0.75C11.6464 0.551088 11.7367 0.360322 11.8976 0.21967C12.0584 0.0790176 12.2766 0 12.5041 0C12.7315 0 12.9497 0.0790176 13.1105 0.21967C13.2714 0.360322 13.3618 0.551088 13.3618 0.75V2.6895L14.4716 1.719C14.6327 1.57837 14.851 1.49944 15.0786 1.49958C15.3062 1.49972 15.5244 1.57892 15.6853 1.71975C15.8461 1.86058 15.9363 2.05151 15.9362 2.25053C15.936 2.44955 15.8455 2.64037 15.6844 2.781L13.3618 4.8105V10.701L19.1941 7.7565L20.0449 4.9815C20.1041 4.78935 20.2481 4.62562 20.4453 4.52632C20.6425 4.42701 20.8767 4.40028 21.0964 4.452C21.3162 4.50372 21.5034 4.62965 21.617 4.80209C21.7306 4.97453 21.7611 5.17935 21.702 5.3715L21.2971 6.6945L23.2184 5.7255C23.4153 5.62761 23.6485 5.6018 23.867 5.65369C24.0856 5.70558 24.2718 5.83096 24.3851 6.00248C24.4983 6.17399 24.5294 6.37772 24.4715 6.56919C24.4136 6.76066 24.2715 6.92434 24.0761 7.0245L22.1548 7.9935L23.6695 8.349C23.8893 8.40072 24.0765 8.52665 24.1901 8.69909C24.3036 8.87153 24.3342 9.07635 24.2751 9.2685C24.2159 9.46065 24.0719 9.62438 23.8747 9.72369C23.6775 9.82299 23.4433 9.84972 23.2235 9.798L20.0535 9.0555L14.2195 12L20.0518 14.9445L23.2235 14.202C23.4433 14.1505 23.6774 14.1774 23.8745 14.2768C24.0715 14.3763 24.2153 14.5401 24.2742 14.7323C24.3331 14.9244 24.3023 15.1291 24.1886 15.3014C24.0749 15.4737 23.8876 15.5995 23.6678 15.651L22.1531 16.0065L24.0744 16.9755C24.2698 17.0757 24.4119 17.2393 24.4698 17.4308C24.5277 17.6223 24.4966 17.826 24.3834 17.9975C24.2701 18.169 24.0839 18.2944 23.8653 18.3463C23.6467 18.3982 23.4136 18.3724 23.2167 18.2745L21.2954 17.3055L21.7003 18.63C21.7315 18.7257 21.7406 18.8259 21.727 18.9248C21.7135 19.0236 21.6776 19.1191 21.6214 19.2057C21.5653 19.2923 21.4899 19.3682 21.3999 19.4291C21.3098 19.49 21.2067 19.5345 21.0968 19.5602C20.9868 19.5859 20.872 19.5922 20.7592 19.5787C20.6464 19.5652 20.5379 19.5322 20.4398 19.4817C20.3417 19.4311 20.2562 19.364 20.1881 19.2842C20.12 19.2044 20.0707 19.1136 20.0432 19.017L19.1941 16.2435L13.3618 13.299V19.1895L15.6827 21.219C15.8437 21.3596 15.9343 21.5504 15.9345 21.7495C15.9346 21.9485 15.8444 22.1394 15.6835 22.2803C15.5227 22.4211 15.3045 22.5003 15.0769 22.5004C14.8493 22.5006 14.631 22.4216 14.4699 22.281L13.36 21.3105V23.25C13.36 23.4489 13.2697 23.6397 13.1088 23.7803C12.948 23.921 12.7298 24 12.5024 24H12.5041Z" fill="#0F805D"/>
</svg>
