<svg width="296" height="42" viewBox="0 0 296 42" fill="none" xmlns="http://www.w3.org/2000/svg">
<path d="M129.41 21.1571C129.408 21.0971 129.385 21.0412 129.347 20.9893C129.399 20.988 129.451 20.9866 129.503 20.9866C129.472 21.0425 129.442 21.0998 129.41 21.1571ZM116.962 38.6727C117.76 32.3524 122.072 24.4216 129.187 21.4598C129.226 21.4448 129.25 21.423 129.278 21.4025C127.53 24.7188 126.61 28.2574 124.638 31.5315C122.92 34.3855 120.016 36.6464 116.962 38.6727ZM93.5384 36.42C92.923 37.455 89.4123 41.9536 89.7215 39.3082C89.9751 37.125 90.6958 34.9882 91.5033 32.8951C93.1706 28.5752 96.2901 24.9547 100.431 21.903C99.374 23.1643 98.9138 24.8157 98.4249 26.2038C97.2037 29.6769 95.4818 33.1487 93.5384 36.42ZM84.2811 6.99998C81.7222 4.02866 86.3387 5.6323 88.4831 6.16956C92.032 7.05728 95.408 8.55997 98.4844 10.1772C103.194 12.6549 107.743 15.3303 110.71 19.1075C100.471 17.4808 90.3471 14.0458 84.2811 6.99998ZM115.144 7.88227C113.982 7.10365 112.952 6.22682 111.933 5.33775C112.162 5.53956 108.779 1.36415 108.943 1.40915C115.614 3.24458 121.525 6.04955 126.703 9.79813C130.51 12.554 132.912 16.3149 136.544 19.1716C131.373 17.3635 127.052 14.8013 122.418 12.2281C119.925 10.8427 117.468 9.44089 115.144 7.88227ZM59.8191 37.8218C57.8026 39.7241 57.2939 39.2714 57.302 36.9464C57.3109 34.4878 58.7449 32.1438 60.2993 30.0765C62.8969 26.6266 67.0163 23.9661 70.7087 21.2593C70.7457 21.2593 70.784 21.2593 70.8216 21.2607C67.4328 26.9933 65.09 32.8514 59.8191 37.8218ZM39.6776 26.0525C37.4546 29.1683 35.5064 32.5037 31.0281 33.7746C31.9738 27.9983 37.4113 23.5229 44.1709 21.4366C42.1898 22.5671 40.7675 24.5225 39.6776 26.0525ZM3.0111 20.1876C10.4747 18.1503 17.5967 18.3603 25.0913 19.7989C23.6846 19.8112 22.2801 19.8235 20.8749 19.8344C20.3566 19.8398 20.1555 20.2107 20.2601 20.508C14.3323 21.213 8.13286 22.7907 3.0111 20.1876ZM25.8756 6.22819C35.7012 6.31955 42.9517 12.9822 49.3377 18.4435C45.0516 16.859 40.3169 16.0681 36.2647 13.9408C32.306 11.8654 29.2802 8.83133 25.8756 6.22819ZM51.1143 4.20187C62.8663 6.01821 72.4148 10.8686 78.3749 18.9398C67.8485 16.8999 55.9392 12.1695 51.1143 4.20187ZM144.929 20.0648C142.827 20.0075 140.723 19.9734 138.621 19.9257C138.704 19.7866 138.694 19.6135 138.519 19.4566C133.964 15.3808 130.402 10.8468 125.084 7.31226C120.03 3.9523 113.912 1.75552 107.71 0.0223694C107.283 -0.0976295 106.75 0.288269 106.93 0.631897C109.44 5.42638 113.939 8.66771 119.18 11.7236C123.773 14.4017 129.083 18.3753 134.84 19.8426C127.379 19.6898 119.914 19.5726 112.448 19.5057C110.785 15.8444 106.268 13.2617 102.393 11.0404C96.3181 7.55772 89.6914 4.99821 82.216 4.00958C81.753 3.94958 81.3475 4.21959 81.4596 4.59731C82.8449 9.21315 88.3408 12.6004 93.0974 15.164C95.9016 16.6749 99.8384 18.4885 103.826 19.4498C95.8381 19.4075 87.8486 19.398 79.8582 19.4171C76.55 9.87995 61.4746 4.50185 50.1167 2.96233C49.6612 2.8996 49.0581 3.20234 49.2713 3.61961C53.1239 11.1959 64.2098 17.3867 74.7138 19.4376C67.1024 19.4676 59.4916 19.5098 51.8809 19.5698C51.8432 19.5167 51.7919 19.4676 51.7133 19.4266C51.4077 19.2807 51.0882 19.158 50.7764 19.0244C43.9171 12.5554 35.7593 4.37367 23.9335 5.03503C23.2606 5.07184 22.83 5.70185 23.3632 6.10684C26.9532 8.82862 30.1665 12.014 34.2003 14.354C38.5369 16.8699 43.6566 18.4257 48.8461 19.5957C42.2152 19.6489 35.5871 19.7062 28.9588 19.7648C20.1752 16.1281 9.50511 16.2071 0.490531 19.2903C-0.0756675 19.4839 -0.163879 20.2039 0.289479 20.5066C3.60331 22.7157 7.73005 22.9679 11.9429 22.8902C17.0038 22.7989 23.5808 22.5902 28.3776 21.2621C28.5691 21.2089 28.6703 21.0766 28.6717 20.9443C33.0994 20.9839 37.5276 21.0193 41.9559 21.0575C34.9326 23.0784 30.0256 28.552 29.6912 34.4537C29.6727 34.7701 30.0953 34.991 30.4701 34.9146C34.242 34.1469 36.6217 32.156 38.6068 29.6374C39.7774 28.1497 40.743 26.5693 41.9115 25.0788C43.2956 23.3129 44.9791 22.3939 47.1318 21.2934C47.2384 21.2402 47.2993 21.1734 47.337 21.1039C54.5237 21.1625 61.7099 21.2143 68.8994 21.2525C61.0835 25.897 53.7715 32.4574 55.974 40.5913C56.0629 40.9227 56.6257 41.2009 57.0476 41.0659C60.9645 39.8209 63.2832 36.4678 65.3067 33.761C68.2854 29.7765 70.1946 25.5929 72.2303 21.2852C72.2336 21.2784 72.231 21.2716 72.2336 21.2634C81.2299 21.3043 90.2274 21.3221 99.2215 21.2907C91.6683 25.4743 87.2843 34.4987 87.9175 41.4027C87.9448 41.6959 88.2458 42.0341 88.6794 41.9972C92.4068 41.6686 94.7508 37.1169 95.9379 34.871C98.1877 30.6138 99.4041 24.9711 102.879 21.2662C111.252 21.2253 119.624 21.1475 127.994 21.0071C119.626 23.3498 114.86 34.046 115.079 40.2123C115.102 40.8354 115.998 41.0727 116.572 40.6936C124.678 35.3305 128.026 28.8533 130.734 20.9593C135.466 20.8734 140.199 20.7739 144.929 20.6471C145.411 20.6348 145.411 20.0771 144.929 20.0648Z" fill="#8E9892" fill-opacity="0.7"/>
<path d="M166.496 20.9866C166.548 20.9866 166.601 20.988 166.652 20.9893C166.615 21.0412 166.592 21.0971 166.59 21.1571C166.559 21.0998 166.527 21.0425 166.496 20.9866ZM171.362 31.5315C169.39 28.2574 168.469 24.7188 166.722 21.4025C166.751 21.423 166.774 21.4448 166.813 21.4598C173.929 24.4216 178.239 32.3524 179.039 38.6727C175.984 36.6464 173.08 34.3855 171.362 31.5315ZM197.573 26.2038C197.087 24.8157 196.626 23.1643 195.569 21.903C199.711 24.9547 202.83 28.5752 204.497 32.8951C205.304 34.9882 206.025 37.125 206.281 39.3082C206.587 41.9536 203.077 37.455 202.463 36.42C200.52 33.1487 198.795 29.6769 197.573 26.2038ZM185.29 19.1075C188.259 15.3303 192.807 12.6549 197.517 10.1772C200.593 8.55997 203.968 7.05727 207.517 6.16956C209.661 5.63229 214.277 4.02866 211.72 6.99998C205.654 14.0458 195.531 17.4807 185.29 19.1075ZM173.582 12.2281C168.948 14.8012 164.628 17.3635 159.456 19.1716C163.088 16.3149 165.491 12.554 169.297 9.79813C174.475 6.04955 180.387 3.24458 187.058 1.40915C187.221 1.36415 183.839 5.53955 184.066 5.33774C183.049 6.22682 182.02 7.10365 180.856 7.88227C178.531 9.44089 176.077 10.8427 173.582 12.2281ZM225.18 21.2607C225.216 21.2593 225.255 21.2593 225.292 21.2593C228.984 23.9661 233.103 26.6266 235.7 30.0765C237.257 32.1437 238.689 34.4878 238.699 36.9464C238.706 39.2714 238.197 39.7241 236.182 37.8218C230.911 32.8514 228.569 26.9933 225.18 21.2607ZM251.828 21.4366C258.589 23.5229 264.026 27.9983 264.971 33.7746C260.495 32.5037 258.545 29.1683 256.322 26.0525C255.231 24.5225 253.812 22.5671 251.828 21.4366ZM275.741 20.508C275.844 20.2107 275.643 19.8398 275.126 19.8344C273.721 19.8235 272.315 19.8112 270.909 19.7989C278.403 18.3603 285.526 18.1503 292.989 20.1876C287.867 22.7907 281.668 21.213 275.741 20.508ZM259.735 13.9408C255.685 16.0681 250.949 16.859 246.662 18.4435C253.048 12.9822 260.299 6.31955 270.125 6.22819C266.72 8.83133 263.693 11.8654 259.735 13.9408ZM217.626 18.9398C223.587 10.8686 233.134 6.01821 244.886 4.20187C240.059 12.1695 228.152 16.8999 217.626 18.9398ZM151.072 20.6471C155.802 20.7739 160.534 20.8734 165.265 20.9593C167.973 28.8533 171.322 35.3305 179.429 40.6936C180.001 41.0727 180.899 40.8354 180.92 40.2123C181.141 34.046 176.374 23.3498 168.007 21.0071C176.378 21.1475 184.749 21.2253 193.122 21.2662C196.597 24.9711 197.811 30.6138 200.061 34.871C201.25 37.1168 203.594 41.6686 207.32 41.9972C207.755 42.0341 208.056 41.6959 208.082 41.4027C208.716 34.4987 204.332 25.4743 196.779 21.2907C205.773 21.3221 214.771 21.3043 223.767 21.2634C223.769 21.2716 223.767 21.2784 223.769 21.2852C225.806 25.5929 227.714 29.7765 230.692 33.761C232.717 36.4677 235.035 39.8209 238.953 41.0659C239.375 41.2009 239.937 40.9227 240.026 40.5913C242.228 32.4574 234.916 25.897 227.102 21.2525C234.289 21.2143 241.477 21.1625 248.663 21.1039C248.7 21.1734 248.761 21.2402 248.868 21.2934C251.021 22.3939 252.705 23.3129 254.09 25.0788C255.258 26.5693 256.224 28.1497 257.395 29.6374C259.378 32.156 261.757 34.1469 265.53 34.9146C265.904 34.991 266.328 34.7701 266.309 34.4537C265.974 28.552 261.066 23.0784 254.044 21.0575C258.473 21.0193 262.902 20.9839 267.329 20.9443C267.331 21.0766 267.433 21.2089 267.623 21.2621C272.418 22.5902 278.995 22.7989 284.058 22.8902C288.269 22.9679 292.397 22.7157 295.711 20.5066C296.163 20.2039 296.077 19.4839 295.51 19.2903C286.494 16.2071 275.827 16.128 267.042 19.7648C260.413 19.7062 253.785 19.6489 247.154 19.5957C252.343 18.4257 257.461 16.8699 261.799 14.354C265.834 12.014 269.047 8.82862 272.637 6.10684C273.169 5.70184 272.74 5.07184 272.066 5.03502C260.241 4.37367 252.082 12.5554 245.223 19.0244C244.91 19.158 244.593 19.2807 244.287 19.4266C244.208 19.4676 244.156 19.5166 244.119 19.5698C236.509 19.5098 228.898 19.4676 221.286 19.4376C231.791 17.3867 242.878 11.1959 246.729 3.6196C246.942 3.20234 246.338 2.8996 245.883 2.96233C234.524 4.50185 219.45 9.87995 216.142 19.4171C208.152 19.398 200.162 19.4075 192.173 19.4498C196.162 18.4885 200.098 16.6749 202.902 15.164C207.66 12.6004 213.155 9.21315 214.54 4.59731C214.654 4.21959 214.247 3.94958 213.785 4.00958C206.309 4.9982 199.681 7.55772 193.607 11.0404C189.733 13.2617 185.215 15.8444 183.552 19.5057C176.087 19.5726 168.621 19.6898 161.16 19.8426C166.916 18.3753 172.227 14.4017 176.821 11.7236C182.062 8.66771 186.559 5.42637 189.071 0.631897C189.251 0.288265 188.717 -0.0976334 188.29 0.0223618C182.088 1.75552 175.972 3.9523 170.916 7.31226C165.598 10.8468 162.035 15.3808 157.481 19.4566C157.306 19.6135 157.296 19.7866 157.379 19.9257C155.277 19.9734 153.173 20.0075 151.072 20.0648C150.588 20.0771 150.588 20.6348 151.072 20.6471Z" fill="#8E9892" fill-opacity="0.7"/>
</svg>
